<?xml version="1.0" standalone="no"?>
<!DOCTYPE svg PUBLIC "-//W3C//DTD SVG 20010904//EN"
 "http://www.w3.org/TR/2001/REC-SVG-20010904/DTD/svg10.dtd">
<svg version="1.0" xmlns="http://www.w3.org/2000/svg"
 width="668.000000pt" height="731.000000pt" viewBox="0 0 668.000000 731.000000"
 preserveAspectRatio="xMidYMid meet">
<metadata>
Created by potrace 1.15, written by Peter Selinger 2001-2017
</metadata>
<g transform="translate(0.000000,731.000000) scale(0.100000,-0.100000)"
fill="#000000" stroke="none">
<path d="M1539 6585 c-167 -23 -323 -74 -469 -151 -356 -189 -620 -539 -685
-908 -19 -113 -20 -379 0 -506 33 -222 134 -485 283 -740 135 -231 283 -427
880 -1160 738 -907 938 -1174 1192 -1600 185 -309 304 -568 420 -915 l67 -200
38 0 39 0 71 195 c98 266 141 365 250 575 115 224 184 340 340 575 228 344
435 612 929 1200 616 733 789 966 975 1315 291 544 370 1031 234 1435 -33 99
-112 249 -175 335 -74 101 -230 251 -329 318 -432 289 -1058 326 -1526 89
-236 -119 -480 -343 -641 -590 -29 -45 -80 -137 -112 -204 l-58 -122 -66 132
c-105 209 -189 332 -326 476 -214 224 -478 369 -797 436 -129 27 -398 35 -534
15z"/>
</g>
</svg>
